<?xml version="1.0" standalone="no"?><svg xmlns="http://www.w3.org/2000/svg" viewBox="0 0 1440 320"><path fill="#56C7F2" fill-opacity="1" d="M0,64L26.7,74.7C53.3,85,107,107,160,144C213.3,181,267,235,320,234.7C373.3,235,427,181,480,154.7C533.3,128,587,128,640,144C693.3,160,747,192,800,218.7C853.3,245,907,267,960,256C1013.3,245,1067,203,1120,170.7C1173.3,139,1227,117,1280,122.7C1333.3,128,1387,160,1413,176L1440,192L1440,320L1413.3,320C1386.7,320,1333,320,1280,320C1226.7,320,1173,320,1120,320C1066.7,320,1013,320,960,320C906.7,320,853,320,800,320C746.7,320,693,320,640,320C586.7,320,533,320,480,320C426.7,320,373,320,320,320C266.7,320,213,320,160,320C106.7,320,53,320,27,320L0,320Z"></path></svg>